# xmcd CD database file generated by Grip 2.95
# 
# Track frame offsets:
#       182
#       8872
#       19987
#       36060
#       43475
#       55915
#       74082
#       86627
#       93705
#       111045
#       134487
#       154317
#       164540
# 
# Disc length: 2335 seconds
# 
# Revision: 3
# Processed by: cddbd v1.4b41PL1 Copyright (c) Steve Scherf et al.
# Submitted via: Grip 2.95
# 
DISCID=bd091d0d
DTITLE=Vodopad - Na cestach
DYEAR=1900
DGENRE=
TTITLE0=Par chvil
TTITLE1=Na cestach
TTITLE2=Mama
TTITLE3=Cucoriedky
TTITLE4=Tulak vietor
TTITLE5=Asi sa nezmenim
TTITLE6=Odchod klauna
TTITLE7=Little Maggie
TTITLE8=Galejnik
TTITLE9=Jarna
TTITLE10=Rad hram
TTITLE11=Bill Cheatham
TTITLE12=Zivot bezi dalej
EXTD=
EXTT0=
EXTT1=
EXTT2=
EXTT3=
EXTT4=
EXTT5=
EXTT6=
EXTT7=
EXTT8=
EXTT9=
EXTT10=
EXTT11=
EXTT12=
PLAYORDER=
